<svg width="0" height="0" class="hidden">
    <symbol fill="none" xmlns="http://www.w3.org/2000/svg" viewBox="0 0 24 24" id="icon-grid">
        <path d="M10 5H5V10H10V5Z" stroke-width="2" stroke-linecap="round" stroke-linejoin="round"></path>
        <path d="M19 5H14V10H19V5Z" stroke-width="2" stroke-linecap="round" stroke-linejoin="round"></path>
        <path d="M19 14H14V19H19V14Z" stroke-width="2" stroke-linecap="round" stroke-linejoin="round"></path>
        <path d="M10 14H5V19H10V14Z" stroke-width="2" stroke-linecap="round" stroke-linejoin="round"></path>
    </symbol>
    <symbol xmlns="http://www.w3.org/2000/svg" viewBox="0 0 24 24" id="icon-list">
            <path d="M8 6H21" stroke-width="2" stroke-linecap="round" stroke-linejoin="round"></path>
            <path d="M8 12H21" stroke-width="2" stroke-linecap="round" stroke-linejoin="round"></path>
            <path d="M8 18H21" stroke-width="2" stroke-linecap="round" stroke-linejoin="round"></path>
            <path d="M3 6H3.01" stroke-width="2" stroke-linecap="round" stroke-linejoin="round"></path>
            <path d="M3 12H3.01" stroke-width="2" stroke-linecap="round" stroke-linejoin="round"></path>
            <path d="M3 18H3.01" stroke-width="2" stroke-linecap="round" stroke-linejoin="round"></path>
    </symbol>
    <symbol xmlns="http://www.w3.org/2000/svg" viewBox="0 0 24 22" id="heart">
        <path d="M20.8401 3.60999C20.3294 3.099 19.7229 2.69364 19.0555 2.41708C18.388 2.14052 17.6726 1.99817 16.9501 1.99817C16.2276 1.99817 15.5122 2.14052 14.8448 2.41708C14.1773 2.69364 13.5709 3.099 13.0601 3.60999L12.0001 4.66999L10.9401 3.60999C9.90843 2.5783 8.50915 1.9987 7.05012 1.9987C5.59109 1.9987 4.19181 2.5783 3.16012 3.60999C2.12843 4.64169 1.54883 6.04096 1.54883 7.49999C1.54883 8.95903 2.12843 10.3583 3.16012 11.39L4.22012 12.45L12.0001 20.23L19.7801 12.45L20.8401 11.39C21.3511 10.8792 21.7565 10.2728 22.033 9.60535C22.3096 8.93789 22.4519 8.22248 22.4519 7.49999C22.4519 6.77751 22.3096 6.0621 22.033 5.39464C21.7565 4.72718 21.3511 4.12075 20.8401 3.60999V3.60999Z" stroke-width="2" stroke-linecap="round" stroke-linejoin="round"></path>
    </symbol>
    <symbol fill="none" xmlns="http://www.w3.org/2000/svg" viewBox="0 0 48 48" id="sibdev-logo">
        <path fill-rule="evenodd" clip-rule="evenodd" d="M32.2629 23.7637L13.4634 33.2487V43.3086L32.2629 33.8236V23.7637Z" fill="#1390E5"></path>
        <path fill-rule="evenodd" clip-rule="evenodd" d="M13.4634 14.2793L32.2629 23.7643V33.8242L13.4634 24.3392V14.2793Z" fill="#1180CB"></path>
        <path fill-rule="evenodd" clip-rule="evenodd" d="M32.2629 4.79492L13.4634 14.28V24.3398L32.2629 14.8548V4.79492Z" fill="#35A2EC"></path>
    </symbol>
</svg>